<svg xmlns="http://www.w3.org/2000/svg" viewBox="0 0 146.04 75.03"><title>FSCS logo</title><path d="M538.86,529.25c-2.57,0-4.5-.72-5.63-2.09s-1.77-3.54-1.77-6.43a23.29,23.29,0,0,1,1.69-8.93,14.68,14.68,0,0,1,4.42-6.27,10,10,0,0,1,6.19-2.09,13.94,13.94,0,0,1,3.62.48A21.24,21.24,0,0,1,552,506l.16.08,2.33-7.48a21.53,21.53,0,0,0-4.74-1.77,26.16,26.16,0,0,0-6-.56,18.76,18.76,0,0,0-10.7,3.06,20.52,20.52,0,0,0-7.48,9,29.74,29.74,0,0,0-2.81,12.87c0,4.91,1.29,8.68,3.78,11.42s6.11,4,10.61,4a29.5,29.5,0,0,0,10.7-2.09l.16-.08v-7.32l-.24.08A23.93,23.93,0,0,1,538.86,529.25Z" transform="translate(-438.98 -474.49)" style="fill:#6c0088"/><path d="M510.39,496.28a15.06,15.06,0,0,0-7.08,1.53,10.91,10.91,0,0,0-4.74,4.26,11.12,11.12,0,0,0-1.69,6.19,10.38,10.38,0,0,0,1.53,5.63,15.85,15.85,0,0,0,5.23,5.23,30.77,30.77,0,0,1,3.3,2.65,6.09,6.09,0,0,1,1,1.53,4.82,4.82,0,0,1,.32,1.93,3.14,3.14,0,0,1-1.61,2.89,7.74,7.74,0,0,1-4.5,1.13,19.87,19.87,0,0,1-9.41-2.81l-.4-.24-2.09,6.59a20.22,20.22,0,0,0,11.82,3.7c4.5,0,8.12-1.13,10.78-3.3a11.05,11.05,0,0,0,4-8.93,11.53,11.53,0,0,0-1.61-6.11,16.16,16.16,0,0,0-4.91-4.74,14.61,14.61,0,0,1-3.86-3.14,4.45,4.45,0,0,1-.8-2.73,3.23,3.23,0,0,1,1.37-3,5.26,5.26,0,0,1,3.46-1.13,17.61,17.61,0,0,1,7.56,1.93l.48.24.16-.4,2.09-6.59A23.61,23.61,0,0,0,510.39,496.28Z" transform="translate(-438.98 -474.49)" style="fill:#6c0088"/><path d="M574.64,496.28a15.06,15.06,0,0,0-7.08,1.53,10.91,10.91,0,0,0-4.74,4.26,11.52,11.52,0,0,0-1.69,6.19,10.38,10.38,0,0,0,1.53,5.63,15.85,15.85,0,0,0,5.23,5.23,30.77,30.77,0,0,1,3.3,2.65,6.09,6.09,0,0,1,1,1.53,4.82,4.82,0,0,1,.32,1.93,3.14,3.14,0,0,1-1.61,2.89,7.74,7.74,0,0,1-4.5,1.13,19.87,19.87,0,0,1-9.41-2.81l-.4-.24-2.09,6.59a20.22,20.22,0,0,0,11.82,3.7c4.5,0,8.12-1.13,10.78-3.3a11.05,11.05,0,0,0,4-8.93,11.53,11.53,0,0,0-1.61-6.11,16.16,16.16,0,0,0-4.91-4.74,14.61,14.61,0,0,1-3.86-3.14,4.45,4.45,0,0,1-.8-2.73,3.23,3.23,0,0,1,1.37-3,5.26,5.26,0,0,1,3.46-1.13,17.61,17.61,0,0,1,7.56,1.93l.48.24.16-.4,2.09-6.59A23.87,23.87,0,0,0,574.64,496.28Z" transform="translate(-438.98 -474.49)" style="fill:#6c0088"/><path d="M482.89,496.84c.16-.56.32-1,.48-1.61,1.77-5.71,4.66-9.41,8.6-11.1,5.31-2.25,11.34-.24,13.11.48l.16.08,2.57-8a5.37,5.37,0,0,0-.56-.24c-3.14-1.13-11.26-3.54-19.06-.32-6.19,2.57-10.53,8-13,16-.48,1.69-1.45,4.74-1.45,4.74L471,505.53l-2.17,7-2.73,8.6s-2,6.51-3.86,10.86-4.42,7.08-7.8,8.2c-5.07,1.69-10.7-.56-12.3-1.21l-.56-.24L439,546.86l.16.08a30.51,30.51,0,0,0,11.9,2.57,22,22,0,0,0,6.59-1c5.71-1.85,10-6.11,12.71-12.63,1.29-3.22,3.7-10.61,3.7-10.61l6.19-19.7Z" transform="translate(-438.98 -474.49)" style="fill:#6c0088"/><polygon points="15.92 21.95 13.43 29.91 52.99 29.91 55.41 21.95 15.92 21.95" style="fill:#6c0088"/><polygon points="15.76 37.8 13.27 45.68 32.49 45.68 35.62 37.8 15.76 37.8" style="fill:#6c0088"/></svg>