<svg width="65" height="22" viewBox="0 0 65 22" fill="none" xmlns="http://www.w3.org/2000/svg">
<path d="M59.4542 20.3429V17.7767L59.0317 17.0889V12.2212C59.0317 11.5157 58.8116 10.9778 58.3715 10.6074C57.9489 10.2371 57.2535 10.0519 56.2852 10.0519C55.6338 10.0519 54.9736 10.1577 54.3046 10.3693C53.6356 10.5633 53.0634 10.8367 52.588 11.1894L50.6866 7.24763C51.5317 6.71853 52.544 6.31289 53.7236 6.0307C54.9032 5.74852 56.0563 5.60742 57.1831 5.60742C59.6655 5.60742 61.5845 6.16298 62.9401 7.27409C64.3134 8.3852 65 10.1489 65 12.5651V20.3429H59.4542ZM55.3609 20.6074C54.1813 20.6074 53.1954 20.4046 52.4032 19.999C51.6109 19.5933 51.0123 19.0554 50.6074 18.3852C50.2025 17.6974 50 16.939 50 16.1101C50 15.1753 50.2377 14.3817 50.713 13.7291C51.1884 13.0766 51.9102 12.5827 52.8785 12.2476C53.8644 11.9125 55.1056 11.745 56.6021 11.745H59.6127V14.6286H57.5528C56.919 14.6286 56.4525 14.7344 56.1532 14.946C55.8715 15.14 55.7306 15.4399 55.7306 15.8455C55.7306 16.1806 55.8539 16.4628 56.1003 16.6921C56.3644 16.9037 56.7165 17.0095 57.1567 17.0095C57.5616 17.0095 57.9313 16.9037 58.2658 16.6921C58.618 16.4628 58.8732 16.1101 59.0317 15.6339L59.7975 17.4064C59.5687 18.4822 59.0845 19.2847 58.3451 19.8138C57.6056 20.3429 56.6109 20.6074 55.3609 20.6074Z" fill="#323131"/>
<path d="M39.5 20.6074C37.8428 20.6074 36.3726 20.29 35.0896 19.655C33.8244 19.0025 32.8265 18.1118 32.0959 16.9831C31.3653 15.8543 31 14.558 31 13.0942C31 11.6303 31.3653 10.3341 32.0959 9.20531C32.8265 8.07656 33.8244 7.19472 35.0896 6.5598C36.3726 5.92488 37.8428 5.60742 39.5 5.60742C41.1572 5.60742 42.6274 5.92488 43.9104 6.5598C45.1934 7.19472 46.1913 8.07656 46.9041 9.20531C47.6347 10.3341 48 11.6303 48 13.0942C48 14.558 47.6347 15.8543 46.9041 16.9831C46.1913 18.1118 45.1934 19.0025 43.9104 19.655C42.6274 20.29 41.1572 20.6074 39.5 20.6074ZM39.5 15.9513C39.9455 15.9513 40.3464 15.8455 40.7028 15.6339C41.0592 15.4222 41.3443 15.1048 41.5582 14.6815C41.772 14.2406 41.8789 13.7115 41.8789 13.0942C41.8789 12.4593 41.772 11.939 41.5582 11.5333C41.3443 11.1101 41.0592 10.7926 40.7028 10.581C40.3464 10.3693 39.9455 10.2635 39.5 10.2635C39.0545 10.2635 38.6536 10.3693 38.2972 10.581C37.9408 10.7926 37.6557 11.1101 37.4418 11.5333C37.228 11.939 37.1211 12.4593 37.1211 13.0942C37.1211 13.7115 37.228 14.2406 37.4418 14.6815C37.6557 15.1048 37.9408 15.4222 38.2972 15.6339C38.6536 15.8455 39.0545 15.9513 39.5 15.9513Z" fill="#323131"/>
<path d="M26.6247 20.6074C24.7954 20.6074 23.3709 20.1045 22.351 19.0986C21.3311 18.0741 20.8212 16.5094 20.8212 14.4045V1.60742H26.3091V14.3486C26.3091 14.8143 26.4143 15.1775 26.6247 15.4383C26.8514 15.6991 27.1266 15.8295 27.4503 15.8295C27.9198 15.8295 28.3326 15.6898 28.6887 15.4104L30 19.7971C29.5791 20.0765 29.0692 20.2814 28.4702 20.4118C27.8874 20.5422 27.2723 20.6074 26.6247 20.6074ZM19 10.4927V5.88242H29.0287V10.4927H19Z" fill="#323131"/>
<path d="M9.18384 20.6074C7.41733 20.6074 5.71104 20.4253 4.06498 20.061C2.41891 19.6967 1.06392 19.2231 0 18.6402L2.28843 13.9408C3.29213 14.469 4.40623 14.897 5.63074 15.2249C6.87533 15.5346 8.07977 15.6894 9.24406 15.6894C9.92657 15.6894 10.4585 15.653 10.8399 15.5801C11.2414 15.489 11.5325 15.3706 11.7132 15.2249C11.8938 15.061 11.9842 14.8697 11.9842 14.6511C11.9842 14.3051 11.7734 14.0318 11.3518 13.8315C10.9303 13.6311 10.3682 13.4672 9.66561 13.3397C8.9831 13.1939 8.23032 13.0482 7.40729 12.9025C6.58426 12.7386 5.75119 12.5291 4.90808 12.2741C4.08505 12.0191 3.32224 11.6821 2.61965 11.2632C1.93714 10.8442 1.3851 10.2978 0.96355 9.62382C0.541997 8.93165 0.33122 8.07555 0.33122 7.05551C0.33122 5.87154 0.692551 4.79686 1.41521 3.83147C2.15795 2.84786 3.25198 2.06462 4.69731 1.48174C6.1627 0.898861 7.9794 0.607422 10.1474 0.607422C11.5726 0.607422 12.9778 0.744034 14.3629 1.01726C15.748 1.29048 16.9926 1.70942 18.0967 2.27409L15.9588 6.94622C14.9149 6.47263 13.9012 6.11744 12.9176 5.88065C11.954 5.64385 11.0106 5.52545 10.0872 5.52545C9.40465 5.52545 8.86265 5.5801 8.46117 5.68939C8.05969 5.79868 7.76862 5.9444 7.58796 6.12655C7.42736 6.3087 7.34707 6.50906 7.34707 6.72764C7.34707 7.05551 7.55784 7.31963 7.9794 7.51999C8.40095 7.70214 8.95298 7.85697 9.6355 7.98447C10.3381 8.11198 11.1009 8.24859 11.9239 8.39431C12.767 8.54003 13.6001 8.74039 14.4231 8.9954C15.2462 9.25041 15.9989 9.58739 16.6815 10.0063C17.384 10.4253 17.9461 10.9717 18.3677 11.6457C18.7892 12.3196 19 13.1575 19 14.1593C19 15.3251 18.6286 16.3998 17.8859 17.3834C17.1632 18.3488 16.0792 19.132 14.6339 19.7331C13.1886 20.316 11.3719 20.6074 9.18384 20.6074Z" fill="#323131"/>
</svg>
